<svg xmlns="http://www.w3.org/2000/svg" xmlns:xlink="http://www.w3.org/1999/xlink" width="200" zoomAndPan="magnify" viewBox="0 0 150 149.999998" height="200" preserveAspectRatio="xMidYMid meet" version="1.2"><g id="ec5814db5a"><path style=" stroke:none;fill-rule:nonzero;fill:#ffffff;fill-opacity:1;" d="M 16.214844 119.59375 L 16.214844 105.40625 L 44.59375 105.40625 L 44.59375 133.785156 L 16.214844 133.785156 Z M 40.539062 119.59375 L 40.539062 109.460938 L 20.269531 109.460938 L 20.269531 129.730469 L 40.539062 129.730469 Z M 24.324219 119.59375 L 24.324219 113.511719 L 36.488281 113.511719 L 36.488281 125.675781 L 24.324219 125.675781 Z M 52.703125 131.757812 L 52.703125 129.730469 L 48.648438 129.730469 L 48.648438 121.621094 L 52.703125 121.621094 L 52.703125 109.460938 L 56.757812 109.460938 L 56.757812 105.40625 L 48.648438 105.40625 L 48.648438 101.351562 L 32.433594 101.351562 L 32.433594 97.296875 L 36.488281 97.296875 L 36.488281 93.242188 L 28.378906 93.242188 L 28.378906 101.351562 L 24.324219 101.351562 L 24.324219 97.296875 L 16.214844 97.296875 L 16.214844 93.242188 L 24.324219 93.242188 L 24.324219 85.136719 L 20.269531 85.136719 L 20.269531 89.1875 L 16.214844 89.1875 L 16.214844 81.082031 L 24.324219 81.082031 L 24.324219 85.136719 L 28.378906 85.136719 L 28.378906 89.1875 L 32.433594 89.1875 L 32.433594 85.136719 L 36.488281 85.136719 L 36.488281 89.1875 L 44.59375 89.1875 L 44.59375 85.136719 L 40.539062 85.136719 L 40.539062 81.082031 L 28.378906 81.082031 L 28.378906 77.027344 L 40.539062 77.027344 L 40.539062 72.972656 L 28.378906 72.972656 L 28.378906 68.917969 L 24.324219 68.917969 L 24.324219 72.972656 L 16.214844 72.972656 L 16.214844 60.8125 L 20.269531 60.8125 L 20.269531 64.863281 L 44.59375 64.863281 L 44.59375 60.8125 L 40.539062 60.8125 L 40.539062 56.757812 L 32.433594 56.757812 L 32.433594 60.8125 L 28.378906 60.8125 L 28.378906 56.757812 L 20.269531 56.757812 L 20.269531 48.648438 L 28.378906 48.648438 L 28.378906 56.757812 L 32.433594 56.757812 L 32.433594 52.703125 L 40.539062 52.703125 L 40.539062 48.648438 L 44.59375 48.648438 L 44.59375 52.703125 L 40.539062 52.703125 L 40.539062 56.757812 L 44.59375 56.757812 L 44.59375 60.8125 L 48.648438 60.8125 L 48.648438 52.703125 L 52.703125 52.703125 L 52.703125 48.648438 L 48.648438 48.648438 L 48.648438 36.488281 L 56.757812 36.488281 L 56.757812 40.539062 L 60.8125 40.539062 L 60.8125 44.59375 L 56.757812 44.59375 L 56.757812 48.648438 L 60.8125 48.648438 L 60.8125 72.972656 L 52.703125 72.972656 L 52.703125 68.917969 L 48.648438 68.917969 L 48.648438 72.972656 L 44.59375 72.972656 L 44.59375 77.027344 L 40.539062 77.027344 L 40.539062 81.082031 L 44.59375 81.082031 L 44.59375 85.136719 L 48.648438 85.136719 L 48.648438 89.1875 L 56.757812 89.1875 L 56.757812 85.136719 L 52.703125 85.136719 L 52.703125 81.082031 L 48.648438 81.082031 L 48.648438 77.027344 L 56.757812 77.027344 L 56.757812 85.136719 L 60.8125 85.136719 L 60.8125 77.027344 L 64.863281 77.027344 L 64.863281 85.136719 L 68.917969 85.136719 L 68.917969 72.972656 L 72.972656 72.972656 L 72.972656 68.917969 L 77.027344 68.917969 L 77.027344 72.972656 L 72.972656 72.972656 L 72.972656 77.027344 L 77.027344 77.027344 L 77.027344 81.082031 L 89.1875 81.082031 L 89.1875 77.027344 L 85.136719 77.027344 L 85.136719 72.972656 L 81.082031 72.972656 L 81.082031 64.863281 L 77.027344 64.863281 L 77.027344 60.8125 L 81.082031 60.8125 L 81.082031 56.757812 L 85.136719 56.757812 L 85.136719 52.703125 L 81.082031 52.703125 L 81.082031 48.648438 L 77.027344 48.648438 L 77.027344 56.757812 L 72.972656 56.757812 L 72.972656 52.703125 L 68.917969 52.703125 L 68.917969 56.757812 L 64.863281 56.757812 L 64.863281 52.703125 L 68.917969 52.703125 L 68.917969 48.648438 L 64.863281 48.648438 L 64.863281 36.488281 L 60.8125 36.488281 L 60.8125 32.433594 L 64.863281 32.433594 L 64.863281 36.488281 L 68.917969 36.488281 L 68.917969 20.269531 L 72.972656 20.269531 L 72.972656 28.378906 L 81.082031 28.378906 L 81.082031 24.324219 L 77.027344 24.324219 L 77.027344 16.214844 L 85.136719 16.214844 L 85.136719 20.269531 L 81.082031 20.269531 L 81.082031 24.324219 L 89.1875 24.324219 L 89.1875 20.269531 L 93.242188 20.269531 L 93.242188 16.214844 L 101.351562 16.214844 L 101.351562 28.378906 L 93.242188 28.378906 L 93.242188 24.324219 L 89.1875 24.324219 L 89.1875 32.433594 L 93.242188 32.433594 L 93.242188 44.59375 L 97.296875 44.59375 L 97.296875 40.539062 L 101.351562 40.539062 L 101.351562 60.8125 L 109.460938 60.8125 L 109.460938 56.757812 L 105.40625 56.757812 L 105.40625 48.648438 L 113.511719 48.648438 L 113.511719 60.8125 L 121.621094 60.8125 L 121.621094 56.757812 L 117.566406 56.757812 L 117.566406 48.648438 L 121.621094 48.648438 L 121.621094 56.757812 L 125.675781 56.757812 L 125.675781 52.703125 L 133.785156 52.703125 L 133.785156 60.8125 L 129.730469 60.8125 L 129.730469 56.757812 L 125.675781 56.757812 L 125.675781 60.8125 L 121.621094 60.8125 L 121.621094 72.972656 L 125.675781 72.972656 L 125.675781 77.027344 L 121.621094 77.027344 L 121.621094 81.082031 L 113.511719 81.082031 L 113.511719 85.136719 L 109.460938 85.136719 L 109.460938 89.1875 L 101.351562 89.1875 L 101.351562 85.136719 L 97.296875 85.136719 L 97.296875 81.082031 L 93.242188 81.082031 L 93.242188 89.1875 L 97.296875 89.1875 L 97.296875 93.242188 L 109.460938 93.242188 L 109.460938 97.296875 L 117.566406 97.296875 L 117.566406 93.242188 L 113.511719 93.242188 L 113.511719 89.1875 L 117.566406 89.1875 L 117.566406 85.136719 L 121.621094 85.136719 L 121.621094 89.1875 L 125.675781 89.1875 L 125.675781 93.242188 L 129.730469 93.242188 L 129.730469 85.136719 L 125.675781 85.136719 L 125.675781 81.082031 L 133.785156 81.082031 L 133.785156 93.242188 L 129.730469 93.242188 L 129.730469 101.351562 L 133.785156 101.351562 L 133.785156 109.460938 L 129.730469 109.460938 L 129.730469 121.621094 L 133.785156 121.621094 L 133.785156 125.675781 L 121.621094 125.675781 L 121.621094 133.785156 L 109.460938 133.785156 L 109.460938 129.730469 L 117.566406 129.730469 L 117.566406 125.675781 L 109.460938 125.675781 L 109.460938 117.566406 L 105.40625 117.566406 L 105.40625 125.675781 L 101.351562 125.675781 L 101.351562 129.730469 L 105.40625 129.730469 L 105.40625 133.785156 L 97.296875 133.785156 L 97.296875 121.621094 L 93.242188 121.621094 L 93.242188 129.730469 L 89.1875 129.730469 L 89.1875 125.675781 L 85.136719 125.675781 L 85.136719 109.460938 L 89.1875 109.460938 L 89.1875 121.621094 L 93.242188 121.621094 L 93.242188 109.460938 L 97.296875 109.460938 L 97.296875 101.351562 L 93.242188 101.351562 L 93.242188 97.296875 L 89.1875 97.296875 L 89.1875 93.242188 L 93.242188 93.242188 L 93.242188 89.1875 L 89.1875 89.1875 L 89.1875 85.136719 L 85.136719 85.136719 L 85.136719 101.351562 L 89.1875 101.351562 L 89.1875 105.40625 L 81.082031 105.40625 L 81.082031 113.511719 L 77.027344 113.511719 L 77.027344 121.621094 L 81.082031 121.621094 L 81.082031 125.675781 L 77.027344 125.675781 L 77.027344 129.730469 L 85.136719 129.730469 L 85.136719 133.785156 L 77.027344 133.785156 L 77.027344 129.730469 L 72.972656 129.730469 L 72.972656 125.675781 L 68.917969 125.675781 L 68.917969 133.785156 L 52.703125 133.785156 Z M 64.863281 125.675781 L 64.863281 121.621094 L 68.917969 121.621094 L 68.917969 109.460938 L 60.8125 109.460938 L 60.8125 113.511719 L 64.863281 113.511719 L 64.863281 117.566406 L 56.757812 117.566406 L 56.757812 121.621094 L 52.703125 121.621094 L 52.703125 125.675781 L 56.757812 125.675781 L 56.757812 129.730469 L 64.863281 129.730469 Z M 121.621094 121.621094 L 121.621094 117.566406 L 125.675781 117.566406 L 125.675781 109.460938 L 129.730469 109.460938 L 129.730469 105.40625 L 125.675781 105.40625 L 125.675781 93.242188 L 121.621094 93.242188 L 121.621094 105.40625 L 125.675781 105.40625 L 125.675781 109.460938 L 121.621094 109.460938 L 121.621094 113.511719 L 117.566406 113.511719 L 117.566406 125.675781 L 121.621094 125.675781 Z M 101.351562 119.59375 L 101.351562 117.566406 L 97.296875 117.566406 L 97.296875 121.621094 L 101.351562 121.621094 Z M 77.027344 111.488281 L 77.027344 109.460938 L 72.972656 109.460938 L 72.972656 113.511719 L 77.027344 113.511719 Z M 113.511719 107.433594 L 113.511719 101.351562 L 101.351562 101.351562 L 101.351562 113.511719 L 113.511719 113.511719 Z M 105.40625 107.433594 L 105.40625 105.40625 L 109.460938 105.40625 L 109.460938 109.460938 L 105.40625 109.460938 Z M 72.972656 103.378906 L 72.972656 101.351562 L 81.082031 101.351562 L 81.082031 97.296875 L 72.972656 97.296875 L 72.972656 93.242188 L 68.917969 93.242188 L 68.917969 97.296875 L 72.972656 97.296875 L 72.972656 101.351562 L 64.863281 101.351562 L 64.863281 97.296875 L 60.8125 97.296875 L 60.8125 101.351562 L 56.757812 101.351562 L 56.757812 97.296875 L 52.703125 97.296875 L 52.703125 93.242188 L 48.648438 93.242188 L 48.648438 89.1875 L 44.59375 89.1875 L 44.59375 93.242188 L 40.539062 93.242188 L 40.539062 97.296875 L 44.59375 97.296875 L 44.59375 93.242188 L 48.648438 93.242188 L 48.648438 97.296875 L 52.703125 97.296875 L 52.703125 101.351562 L 56.757812 101.351562 L 56.757812 105.40625 L 72.972656 105.40625 Z M 60.8125 91.214844 L 60.8125 89.1875 L 56.757812 89.1875 L 56.757812 93.242188 L 60.8125 93.242188 Z M 81.082031 89.1875 L 81.082031 85.136719 L 72.972656 85.136719 L 72.972656 89.1875 L 77.027344 89.1875 L 77.027344 93.242188 L 81.082031 93.242188 Z M 105.40625 83.109375 L 105.40625 81.082031 L 101.351562 81.082031 L 101.351562 85.136719 L 105.40625 85.136719 Z M 113.511719 79.054688 L 113.511719 77.027344 L 117.566406 77.027344 L 117.566406 64.863281 L 113.511719 64.863281 L 113.511719 68.917969 L 109.460938 68.917969 L 109.460938 72.972656 L 105.40625 72.972656 L 105.40625 68.917969 L 97.296875 68.917969 L 97.296875 64.863281 L 93.242188 64.863281 L 93.242188 60.8125 L 97.296875 60.8125 L 97.296875 48.648438 L 93.242188 48.648438 L 93.242188 44.59375 L 89.1875 44.59375 L 89.1875 40.539062 L 85.136719 40.539062 L 85.136719 44.59375 L 81.082031 44.59375 L 81.082031 32.433594 L 85.136719 32.433594 L 85.136719 36.488281 L 89.1875 36.488281 L 89.1875 32.433594 L 85.136719 32.433594 L 85.136719 28.378906 L 81.082031 28.378906 L 81.082031 32.433594 L 77.027344 32.433594 L 77.027344 44.59375 L 81.082031 44.59375 L 81.082031 48.648438 L 85.136719 48.648438 L 85.136719 44.59375 L 89.1875 44.59375 L 89.1875 56.757812 L 85.136719 56.757812 L 85.136719 60.8125 L 81.082031 60.8125 L 81.082031 64.863281 L 85.136719 64.863281 L 85.136719 72.972656 L 89.1875 72.972656 L 89.1875 68.917969 L 97.296875 68.917969 L 97.296875 72.972656 L 101.351562 72.972656 L 101.351562 77.027344 L 109.460938 77.027344 L 109.460938 81.082031 L 113.511719 81.082031 Z M 109.460938 75 L 109.460938 72.972656 L 113.511719 72.972656 L 113.511719 77.027344 L 109.460938 77.027344 Z M 44.59375 70.945312 L 44.59375 68.917969 L 48.648438 68.917969 L 48.648438 64.863281 L 44.59375 64.863281 L 44.59375 68.917969 L 40.539062 68.917969 L 40.539062 72.972656 L 44.59375 72.972656 Z M 56.757812 62.835938 L 56.757812 60.8125 L 52.703125 60.8125 L 52.703125 64.863281 L 56.757812 64.863281 Z M 56.757812 42.566406 L 56.757812 40.539062 L 52.703125 40.539062 L 52.703125 44.59375 L 56.757812 44.59375 Z M 72.972656 40.539062 L 72.972656 36.488281 L 68.917969 36.488281 L 68.917969 44.59375 L 72.972656 44.59375 Z M 97.296875 22.296875 L 97.296875 20.269531 L 93.242188 20.269531 L 93.242188 24.324219 L 97.296875 24.324219 Z M 129.730469 131.757812 L 129.730469 129.730469 L 133.785156 129.730469 L 133.785156 133.785156 L 129.730469 133.785156 Z M 129.730469 72.972656 L 129.730469 68.917969 L 125.675781 68.917969 L 125.675781 64.863281 L 129.730469 64.863281 L 129.730469 68.917969 L 133.785156 68.917969 L 133.785156 77.027344 L 129.730469 77.027344 Z M 16.214844 30.40625 L 16.214844 16.214844 L 44.59375 16.214844 L 44.59375 44.59375 L 16.214844 44.59375 Z M 40.539062 30.40625 L 40.539062 20.269531 L 20.269531 20.269531 L 20.269531 40.539062 L 40.539062 40.539062 Z M 24.324219 30.40625 L 24.324219 24.324219 L 36.488281 24.324219 L 36.488281 36.488281 L 24.324219 36.488281 Z M 105.40625 30.40625 L 105.40625 16.214844 L 133.785156 16.214844 L 133.785156 44.59375 L 105.40625 44.59375 Z M 129.730469 30.40625 L 129.730469 20.269531 L 109.460938 20.269531 L 109.460938 40.539062 L 129.730469 40.539062 Z M 113.511719 30.40625 L 113.511719 24.324219 L 125.675781 24.324219 L 125.675781 36.488281 L 113.511719 36.488281 Z M 48.648438 30.40625 L 48.648438 28.378906 L 52.703125 28.378906 L 52.703125 32.433594 L 48.648438 32.433594 Z M 56.757812 26.351562 L 56.757812 24.324219 L 52.703125 24.324219 L 52.703125 16.214844 L 56.757812 16.214844 L 56.757812 20.269531 L 60.8125 20.269531 L 60.8125 16.214844 L 64.863281 16.214844 L 64.863281 20.269531 L 60.8125 20.269531 L 60.8125 28.378906 L 56.757812 28.378906 Z M 56.757812 26.351562 "/></g></svg>